<?xml version="1.0" standalone="no"?>
<!DOCTYPE svg PUBLIC "-//W3C//DTD SVG 20010904//EN"
 "http://www.w3.org/TR/2001/REC-SVG-20010904/DTD/svg10.dtd">
<svg version="1.0" xmlns="http://www.w3.org/2000/svg"
 width="450.000000pt" height="450.000000pt" viewBox="0 0 450.000000 450.000000"
 preserveAspectRatio="xMidYMid meet">
<metadata>
Created by potrace 1.11, written by Peter Selinger 2001-2013
</metadata>
<g transform="translate(0.000000,450.000000) scale(0.100000,-0.100000)"
fill="#000000" stroke="none">
<path d="M9 4498 c-1 -2 -3 -30 -6 -63 -5 -67 8 -85 59 -85 24 0 28 -4 29 -27
3 -53 -1 -80 -17 -118 -12 -30 -18 -35 -25 -24 -7 11 -13 9 -29 -11 -19 -24
-20 -39 -17 -537 l2 -511 24 -26 c18 -19 21 -26 9 -26 -11 0 -18 -17 -24 -62
-7 -50 -11 -948 -5 -1253 0 -38 -2 -449 -4 -912 l-6 -843 1453 0 1453 0 10 23
c17 38 105 31 105 -8 0 -13 97 -15 740 -15 l740 0 0 235 0 234 -32 17 c-18 9
-34 18 -36 19 -4 3 29 79 38 85 26 18 30 61 30 304 l0 256 -22 0 c-13 0 -36 9
-53 20 -16 11 -38 20 -47 20 -10 0 -27 9 -38 20 -11 11 -25 20 -31 20 -14 0
-69 56 -69 70 0 5 -10 10 -23 10 -12 0 -28 9 -35 20 -18 30 -52 10 -52 -31 0
-17 -7 -37 -15 -45 -9 -9 -15 -34 -15 -60 0 -40 -2 -44 -25 -44 -14 0 -25 -6
-25 -12 0 -7 -6 -4 -12 7 -15 27 -48 55 -64 55 -24 0 -84 35 -84 49 0 7 -6 11
-15 7 -8 -3 -21 1 -29 9 -10 10 -46 17 -113 21 -82 4 -106 2 -150 -14 -52 -20
-53 -20 -78 -1 -13 11 -41 51 -60 88 -39 74 -69 107 -100 113 -19 3 -20 -4
-25 -132 -6 -131 -7 -136 -37 -180 -46 -65 -144 -157 -255 -239 -53 -39 -100
-71 -103 -71 -3 0 -21 -11 -38 -24 -79 -59 -238 -136 -280 -136 -51 0 -77 11
-77 31 0 11 -4 19 -9 19 -4 0 -20 9 -34 21 -23 17 -25 23 -14 40 9 14 9 22 1
27 -32 20 6 84 61 102 18 6 36 17 39 25 3 8 12 15 21 15 8 0 15 4 15 9 0 5 10
13 22 17 31 10 68 36 180 131 53 46 99 92 103 103 3 11 10 20 15 20 5 0 16 13
25 30 9 17 11 30 5 30 -5 0 -10 18 -10 40 0 22 -4 40 -10 40 -5 0 -10 -11 -10
-24 0 -13 -7 -27 -16 -30 -22 -9 -26 -8 -18 5 4 7 1 10 -7 7 -8 -3 -13 -15
-12 -27 2 -17 -4 -22 -37 -27 -22 -4 -37 -10 -34 -15 2 -4 -4 -17 -15 -28 -16
-16 -21 -17 -25 -5 -6 15 -43 19 -65 5 -17 -11 -91 6 -105 24 -7 10 -34 15
-78 17 -38 2 -68 5 -68 8 0 3 -13 6 -30 7 -51 3 -60 6 -60 17 0 6 -5 4 -10 -4
-8 -13 -13 -13 -31 -2 -14 9 -25 10 -31 4 -6 -6 -6 -12 1 -16 6 -4 11 -15 11
-24 0 -11 -3 -13 -8 -6 -4 6 -20 14 -35 18 -23 5 -28 12 -27 34 4 60 -7 70
-27 25 -17 -35 -16 -41 3 -60 21 -22 3 -39 -24 -22 -17 10 -23 10 -36 0 -13
-11 -16 -11 -16 2 0 8 6 17 13 20 7 2 8 8 3 13 -5 5 -11 4 -13 -3 -7 -21 -38
-15 -63 12 -13 14 -29 25 -37 25 -7 0 -13 6 -13 14 0 7 -7 19 -15 26 -8 7 -15
21 -15 31 0 11 -4 27 -9 37 -5 9 -13 35 -19 57 -5 22 -20 66 -32 99 -18 46
-20 63 -11 82 6 13 15 24 21 24 6 0 8 -5 4 -11 -9 -15 14 -29 48 -29 21 0 31
-8 44 -35 13 -27 21 -34 35 -30 14 5 22 -1 29 -21 20 -51 48 -66 110 -59 127
13 160 15 160 6 0 -11 33 -4 77 15 17 8 41 14 52 14 33 0 93 28 86 40 -3 5
-15 10 -25 10 -10 0 -21 4 -24 9 -12 19 -114 32 -251 32 -137 0 -209 12 -202
33 5 15 50 24 64 14 6 -5 31 -5 60 0 26 6 38 10 26 11 -16 1 -23 7 -23 21 0
16 7 20 33 21 17 0 41 2 52 3 11 2 47 6 79 10 33 4 68 12 79 18 34 18 163 46
190 41 34 -7 131 22 193 58 50 28 52 28 83 13 18 -9 35 -24 39 -33 3 -9 12
-21 20 -27 7 -5 13 -17 12 -25 -4 -26 0 -40 9 -35 5 4 12 0 15 -6 2 -7 3 4 1
26 -4 39 10 71 48 108 9 10 17 24 17 32 0 8 6 16 13 19 21 8 34 68 24 115 -4
23 -12 42 -18 42 -5 0 -9 5 -9 10 0 21 -164 166 -223 198 -101 55 -138 67
-147 51 -6 -8 -1 -20 13 -33 41 -39 95 -111 98 -131 2 -11 -2 -29 -8 -40 -26
-48 -24 -177 2 -135 13 20 25 9 25 -23 0 -31 -2 -33 -55 -45 -30 -7 -93 -15
-139 -17 -47 -2 -113 -9 -148 -15 -80 -13 -138 -13 -138 0 0 6 8 10 17 10 34
0 186 53 204 71 23 23 25 59 4 59 -16 0 -16 25 -1 49 7 11 5 13 -7 8 -10 -3
-17 -2 -17 3 0 16 -19 11 -57 -14 -42 -29 -63 -24 -63 13 0 36 -17 51 -49 45
-20 -4 -36 3 -68 30 -45 40 -60 43 -149 32 -74 -9 -89 3 -81 65 5 38 37 81 68
91 23 8 1 38 -28 38 -22 0 -38 -12 -73 -56 -36 -46 -61 -64 -144 -106 -56 -28
-119 -61 -141 -74 -22 -13 -49 -21 -60 -18 -11 3 -40 1 -63 -5 -35 -7 -44 -6
-49 5 -6 17 -30 18 -36 2 -4 -9 -6 -8 -6 2 -1 11 -5 9 -14 -6 -6 -12 -21 -33
-31 -48 -25 -35 -37 -99 -29 -159 5 -41 3 -47 -11 -41 -12 5 -19 -2 -27 -25
-9 -26 -16 -31 -45 -31 -19 0 -34 5 -34 11 0 5 -5 7 -12 3 -6 -4 -8 -3 -5 3 9
14 -19 37 -33 28 -5 -3 -10 -1 -10 5 0 6 -5 8 -11 5 -5 -4 -19 1 -29 10 -10 9
-21 12 -24 7 -3 -5 -27 -8 -53 -6 -68 4 -70 4 -48 15 15 7 10 8 -22 6 -28 -2
-43 2 -43 9 0 12 -24 17 -134 29 -33 4 -66 13 -73 21 -8 8 -11 14 -7 14 5 0 2
6 -4 12 -10 10 -15 10 -22 -2 -5 -8 -13 -11 -17 -6 -4 5 -2 11 5 13 17 7 15
61 -3 65 -13 3 -13 6 0 32 8 15 15 35 15 42 0 8 7 25 15 38 8 12 17 36 19 52
6 41 24 97 34 103 4 3 18 21 31 38 12 18 46 48 74 67 29 19 62 44 74 55 12 12
26 21 30 21 17 0 40 38 47 76 13 75 14 76 42 52 28 -25 33 -92 9 -124 -22 -30
-19 -80 7 -98 33 -23 41 -20 66 25 22 38 23 46 17 167 -8 153 6 276 40 345 33
65 48 121 50 192 3 68 29 165 47 176 7 5 20 2 28 -6 14 -13 15 -11 12 20 -4
33 -3 35 26 35 21 0 31 6 35 20 3 11 13 23 23 27 10 3 26 15 36 25 10 10 27
18 38 18 12 0 24 10 29 23 26 64 205 189 326 227 22 7 44 16 49 21 6 5 18 9
27 9 21 0 183 47 224 64 126 55 158 67 197 75 84 17 154 33 210 47 106 26 157
17 228 -43 24 -20 70 -104 70 -128 0 -18 12 -19 27 -4 8 8 15 5 24 -12 7 -13
21 -39 31 -57 10 -19 25 -59 33 -89 8 -30 28 -72 46 -94 37 -47 79 -131 79
-158 0 -11 4 -22 9 -25 4 -3 11 -34 14 -68 5 -60 20 -102 115 -323 22 -50 35
-101 44 -178 10 -91 15 -107 30 -107 10 0 18 -4 18 -9 0 -6 12 -6 30 0 37 13
38 31 4 54 -25 16 -26 20 -19 78 4 42 13 68 26 80 19 18 22 31 23 97 1 28 5
36 23 38 22 3 71 68 59 79 -3 3 0 13 6 21 16 18 21 52 8 52 -6 0 -10 7 -10 15
0 8 5 15 10 15 6 0 10 14 10 31 0 17 9 44 21 61 19 26 23 27 38 15 24 -20 78
-40 90 -32 6 3 11 -1 11 -9 0 -9 3 -15 8 -14 14 4 72 -33 72 -46 0 -17 59 -29
76 -15 14 12 84 2 84 -12 0 -5 18 -9 39 -9 25 0 41 -5 45 -15 3 -8 15 -15 26
-15 18 0 20 -6 20 -80 0 -64 3 -80 15 -80 11 0 15 -11 15 -39 0 -22 6 -42 13
-45 10 -5 10 -7 0 -12 -7 -3 -13 -16 -13 -28 0 -12 -9 -28 -20 -36 -11 -8 -20
-20 -20 -27 0 -7 -7 -13 -16 -13 -9 0 -18 -9 -21 -20 -4 -15 -14 -20 -40 -20
-20 0 -42 8 -55 20 -12 11 -32 20 -44 20 -27 0 -124 50 -152 78 -13 13 -28 19
-41 15 -13 -3 -23 0 -27 11 -8 20 -74 18 -74 -2 0 -7 -4 -10 -10 -7 -5 3 -10
4 -10 0 0 -3 12 -10 27 -16 l27 -10 -24 -12 c-14 -7 -26 -21 -28 -32 -8 -51
-14 -65 -29 -65 -14 0 -14 -2 2 -20 12 -13 18 -38 20 -77 1 -32 3 -70 4 -85 0
-16 7 -28 14 -28 8 0 19 -11 26 -24 9 -16 25 -26 52 -30 21 -3 39 -10 39 -15
0 -5 20 -14 45 -21 25 -7 43 -15 40 -18 -8 -8 76 -43 88 -35 5 3 7 2 4 -4 -9
-14 39 -36 88 -41 46 -4 123 -38 146 -64 9 -10 23 -18 30 -18 8 0 20 -9 27
-20 16 -27 25 -21 60 45 23 41 26 55 15 55 -8 0 -12 4 -8 9 3 6 -1 13 -9 18
-22 12 -46 64 -46 101 0 17 -4 32 -10 32 -5 0 -10 18 -10 40 0 22 -3 40 -7 40
-5 0 -9 18 -11 40 -2 30 3 44 18 57 11 10 20 30 20 46 0 28 1 29 48 26 26 -1
60 3 75 9 16 7 42 12 58 12 l29 0 0 449 c0 397 -2 449 -15 447 -9 -1 -43 1
-76 5 -51 6 -64 12 -89 40 -16 19 -30 39 -30 44 0 6 -13 22 -30 35 -16 14 -41
35 -55 48 -15 12 -37 22 -51 22 -13 0 -24 4 -24 10 0 5 -17 12 -37 16 -21 4
-54 14 -73 22 -19 8 -51 14 -70 13 -117 -6 -238 -22 -325 -41 -55 -12 -109
-23 -120 -24 -12 -1 -26 -6 -33 -10 -17 -10 -32 1 -32 25 0 10 -10 27 -22 37
-61 49 -99 94 -93 110 3 9 3 13 -1 9 -11 -11 -64 24 -113 74 -25 26 -59 50
-76 54 -16 3 -38 15 -48 26 -20 22 -95 27 -115 7 -17 -17 -42 8 -42 43 0 20
-13 41 -42 71 -23 24 -41 51 -39 60 2 13 -3 16 -13 12 -12 -5 -15 -2 -10 10 4
10 0 18 -10 22 -9 3 -14 10 -11 14 3 4 0 22 -6 39 l-11 31 -379 0 c-366 0
-380 -1 -399 -20 -11 -11 -29 -20 -41 -20 -11 0 -33 -6 -47 -14 -15 -8 -47
-19 -71 -26 -72 -19 -268 -117 -317 -158 -25 -20 -78 -75 -119 -122 -40 -47
-82 -96 -94 -109 -11 -13 -21 -28 -21 -32 0 -4 -23 -45 -50 -91 -28 -45 -54
-94 -57 -108 -3 -13 -19 -45 -35 -69 -15 -25 -28 -49 -28 -54 0 -16 -61 -64
-111 -87 -27 -13 -49 -27 -49 -32 0 -4 -9 -8 -20 -8 -11 0 -20 -4 -20 -8 0
-13 -105 -34 -134 -26 -16 4 -26 2 -26 -5 0 -6 -7 -11 -15 -11 -7 0 -18 -6
-22 -13 -10 -15 -126 -77 -144 -77 -18 1 -59 35 -59 49 0 6 -5 11 -10 11 -17
0 -95 82 -115 119 -14 29 -16 49 -11 112 7 79 31 169 47 169 5 0 9 7 9 15 0
15 19 55 31 65 3 3 16 48 29 100 14 56 32 105 44 118 43 48 60 62 76 62 21 0
170 48 184 59 6 5 109 11 229 14 208 4 219 6 233 26 8 11 23 21 33 21 11 0 21
9 24 21 3 12 10 18 16 14 6 -3 11 -2 11 3 0 6 11 12 23 16 20 5 24 12 25 51
l2 45 -700 0 c-385 0 -700 -1 -701 -2z m2068 -2334 c-33 -28 -40 -29 -61 -8
-23 22 -20 60 6 78 21 15 24 14 53 -15 l30 -30 -28 -25z m653 -268 c0 -28 -15
-43 -24 -24 -4 9 -10 6 -22 -9 -20 -27 -31 -29 -56 -6 -17 15 -18 15 -18 -1 0
-14 -7 -17 -34 -15 -19 2 -38 0 -42 -4 -11 -11 -64 -8 -64 3 0 13 49 33 65 27
6 -3 19 1 30 9 10 8 31 14 46 14 15 0 31 5 35 11 3 6 17 9 30 6 14 -2 27 0 30
4 10 17 24 9 24 -15z m-1480 4 c0 -5 -4 -10 -10 -10 -5 0 -10 5 -10 10 0 6 5
10 10 10 6 0 10 -4 10 -10z m518 -74 c42 -49 48 -71 22 -98 -18 -19 -22 -20
-30 -8 -5 8 -10 23 -10 33 0 10 -4 15 -10 12 -5 -3 -10 0 -10 9 0 8 6 16 13
19 7 3 0 9 -15 16 -18 6 -28 18 -28 31 0 31 34 24 68 -14z m-760 -180 c-4 -17
-1 -23 8 -19 8 3 28 -7 45 -21 25 -21 28 -27 15 -32 -9 -3 -16 -12 -16 -19 0
-7 -11 -29 -25 -49 -14 -20 -25 -42 -25 -49 0 -19 34 -35 88 -43 28 -3 61 -14
75 -23 80 -53 97 -68 97 -84 0 -10 14 -26 32 -35 18 -9 46 -31 63 -48 43 -43
101 -74 140 -74 25 0 35 -5 40 -20 3 -11 11 -20 16 -20 5 0 9 -9 9 -20 0 -12
12 -31 27 -44 14 -13 29 -34 31 -47 9 -45 4 -160 -8 -174 -6 -7 -36 -23 -68
-36 -31 -12 -75 -34 -96 -47 -89 -55 -403 -202 -431 -202 -3 0 -5 7 -5 17 0 9
-3 13 -7 10 -3 -4 -17 0 -29 8 -13 8 -31 12 -40 8 -11 -4 -15 -3 -10 5 3 6 -3
13 -15 17 -24 8 -106 -2 -113 -14 -3 -4 -25 -8 -48 -9 -24 0 -80 -10 -125 -21
-45 -12 -95 -21 -113 -21 -34 0 -90 25 -90 40 0 5 -14 25 -31 45 -17 19 -28
35 -25 35 3 0 -3 9 -13 19 -11 11 -25 37 -30 58 -6 21 -17 47 -25 58 -20 27
-20 96 1 137 9 18 20 41 25 50 4 9 5 30 2 46 -7 34 12 146 26 150 6 2 10 16
10 30 0 15 9 38 20 52 11 14 20 30 20 37 0 6 3 13 8 15 4 2 27 29 51 61 24 31
47 57 52 57 4 0 26 17 48 38 22 21 61 49 87 62 27 13 67 42 90 64 79 76 75 74
183 75 83 1 83 1 79 -23z m675 -188 c33 -32 78 -94 81 -112 1 -7 7 -20 13 -28
7 -8 17 -45 23 -83 6 -38 16 -75 22 -82 12 -15 40 -125 33 -132 -9 -9 -48 35
-70 80 -13 25 -33 81 -44 123 -10 43 -21 80 -24 82 -11 11 -67 22 -67 13 0 -5
-6 -9 -14 -9 -14 0 -14 39 -1 78 3 7 0 10 -5 7 -17 -10 -11 47 7 67 20 22 17
23 46 -4z m7 -152 c0 -11 -19 -15 -25 -6 -3 5 1 10 9 10 9 0 16 -2 16 -4z"/>
<path d="M3433 4260 c-18 -7 -23 -17 -23 -45 0 -20 -7 -43 -15 -51 -26 -26
-17 -34 38 -34 28 0 58 -4 66 -9 16 -10 71 9 71 25 0 7 7 14 15 18 8 3 15 10
15 16 0 5 -7 10 -15 10 -8 0 -15 5 -15 10 0 6 5 10 11 10 21 0 -21 30 -51 36
-17 4 -33 11 -36 15 -7 11 -32 11 -61 -1z"/>
<path d="M3470 4110 c0 -5 5 -10 10 -10 6 0 10 5 10 10 0 6 -4 10 -10 10 -5 0
-10 -4 -10 -10z"/>
<path d="M3378 4033 c6 -2 18 -2 25 0 6 3 1 5 -13 5 -14 0 -19 -2 -12 -5z"/>
<path d="M2845 3100 c-79 -5 -188 -42 -269 -91 -16 -10 -35 -15 -42 -12 -8 3
-14 0 -14 -6 0 -6 -10 -16 -22 -22 -32 -14 -38 -88 -8 -96 25 -7 33 -33 21
-67 -17 -43 14 -96 56 -96 16 0 23 -6 23 -19 0 -13 15 -26 44 -41 36 -17 63
-21 147 -22 57 0 115 4 129 10 l25 10 -32 7 c-29 7 -30 9 -22 34 14 39 102 80
159 74 49 -6 63 7 49 46 -10 27 -84 81 -112 81 -9 0 -19 5 -22 10 -3 6 -17 10
-30 10 -36 0 -75 21 -75 40 0 10 13 23 30 30 28 12 54 11 140 -6 21 -4 22 -3
5 4 -17 8 -13 10 23 16 39 7 59 25 30 27 -7 1 -2 4 12 8 24 7 23 9 -29 42 -58
36 -72 38 -216 29z"/>
<path d="M1710 3028 c-87 -12 -127 -25 -173 -56 -42 -28 -72 -84 -58 -110 13
-26 22 -100 12 -104 -14 -5 -25 -88 -12 -88 6 0 11 -8 11 -18 0 -14 6 -17 33
-14 24 3 39 -3 60 -22 15 -14 35 -26 43 -26 8 0 29 -7 47 -17 38 -19 137 -42
187 -43 19 0 65 7 103 16 37 9 70 15 72 12 3 -3 6 -20 8 -39 3 -38 18 -45 71
-35 26 5 36 15 54 51 12 24 32 51 46 60 33 22 45 63 50 164 3 73 0 88 -23 134
-19 37 -33 53 -50 55 -13 2 -39 12 -58 23 -18 10 -45 19 -58 19 -14 0 -25 4
-25 9 0 10 -131 32 -214 36 -34 1 -90 -2 -126 -7z"/>
<path d="M2563 2218 c-18 -13 -33 -26 -33 -30 0 -10 81 21 100 38 26 24 -31
17 -67 -8z"/>
<path d="M1315 2190 c-12 -13 -31 -20 -57 -20 -49 0 -51 -22 -2 -45 32 -15 39
-15 72 -2 40 16 53 47 32 73 -16 19 -23 18 -45 -6z"/>
<path d="M4273 2146 c-17 -17 -22 -37 -27 -108 -3 -49 -2 -88 2 -88 4 0 13
-15 21 -32 9 -23 15 -28 18 -18 9 21 45 49 66 50 26 0 25 80 -2 80 -16 0 -20
10 -26 60 -8 71 -22 86 -52 56z"/>
<path d="M2615 2110 c3 -5 11 -10 16 -10 6 0 7 5 4 10 -3 6 -11 10 -16 10 -6
0 -7 -4 -4 -10z"/>
<path d="M2955 1687 c-4 -10 -5 -21 -1 -24 10 -10 18 4 13 24 -4 17 -4 17 -12
0z"/>
<path d="M2996 1361 c-4 -7 -5 -15 -2 -18 9 -9 19 4 14 18 -4 11 -6 11 -12 0z"/>
</g>
</svg>
